<svg viewBox="0 -80 250 100" width="220" height="160" fill="#ffae00" xmlns="http://www.w3.org/2000/svg" xmlns:xlink="http://www.w3.org/1999/xlink">
<g>
<path d="M35.92-26.40L35.92 0L27.80 0L27.80-9.16L27.92-18.04L27.80-18.04L22.68 0L15.24 0L10.20-18.04L10.04-18.04L10.16-9.16L10.16 0L2 0L2-26.40L15.04-26.40L18.08-14.68L19.24-9.76L19.32-9.76L20.48-14.68L23.52-26.40L35.92-26.40Z M60.44-10.64Q60.44-9.12 60.24-8.24L60.24-8.24L47.52-8.24Q47.72-6.76 48.36-6.24Q49-5.72 50.28-5.72L50.28-5.72Q52.24-5.72 52.68-7.44L52.68-7.44L60.08-5.44Q59.40-2.56 56.74-1.08Q54.08 0.40 50.28 0.40L50.28 0.40Q44.60 0.40 41.66-2.28Q38.72-4.96 38.72-10L38.72-10Q38.72-14.96 41.62-17.68Q44.52-20.40 49.80-20.40L49.80-20.40Q54.96-20.40 57.70-17.76Q60.44-15.12 60.44-10.64L60.44-10.64ZM49.84-14.32Q48.80-14.32 48.24-13.72Q47.68-13.12 47.52-11.64L47.52-11.64L51.84-11.64Q51.72-13 51.26-13.66Q50.80-14.32 49.84-14.32L49.84-14.32Z M76.52-5.68Q84.64-5.68 84.64 1.12L84.64 1.12Q84.64 4.88 81.50 6.74Q78.36 8.60 72.48 8.60L72.48 8.60Q66.76 8.60 64.16 7.52Q61.56 6.44 61.56 4.28L61.56 4.28Q61.56 2.96 62.46 1.98Q63.36 1 65.44 0.60L65.44 0.60Q62.08-0.72 62.08-3.88L62.08-3.88Q62.08-5.28 63-6.40Q63.92-7.52 65.48-8.08L65.48-8.08Q62.04-9.76 62.04-13.56L62.04-13.56Q62.04-20.40 72.84-20.40L72.84-20.40Q75.12-20.40 76.76-20.12L76.76-20.12Q77.04-22.84 78.48-24.68Q79.92-26.52 82.68-26.52L82.68-26.52Q83.24-26.52 83.56-26.48L83.56-26.48L84.32-20.80Q83.64-20.96 82.88-20.96L82.88-20.96Q81.72-20.96 80.92-20.50Q80.12-20.04 79.72-19.32L79.72-19.32Q83.64-17.68 83.64-13.56L83.64-13.56Q83.64-6.80 72.84-6.80L72.84-6.80Q70.32-6.80 68.40-7.16L68.40-7.16Q67.88-7 67.88-6.52L67.88-6.52Q67.88-5.68 69.60-5.68L69.60-5.68L76.52-5.68ZM72.84-15.64Q72.04-15.64 71.60-15.10Q71.16-14.56 71.16-13.60L71.16-13.60Q71.16-12.64 71.60-12.10Q72.04-11.56 72.84-11.56L72.84-11.56Q73.64-11.56 74.08-12.10Q74.52-12.64 74.52-13.60L74.52-13.60Q74.52-14.56 74.08-15.10Q73.64-15.64 72.84-15.64L72.84-15.64ZM73.04 3.04Q75.48 3.04 76.58 2.80Q77.68 2.56 77.68 2.04L77.68 2.04Q77.68 1.72 77.36 1.58Q77.04 1.44 76.24 1.44L76.24 1.44L70.68 1.44Q69.20 1.44 68.70 1.58Q68.20 1.72 68.20 2.12L68.20 2.12Q68.20 2.60 69.32 2.82Q70.44 3.04 73.04 3.04L73.04 3.04Z M107.24-4.92Q107.92-4.92 108.24-5.08L108.24-5.08L107.52-0.40Q106.16 0.40 104.56 0.40L104.56 0.40Q102.12 0.40 100.48-0.46Q98.84-1.32 98.28-2.96L98.28-2.96Q97.36-1.40 95.58-0.50Q93.80 0.40 91.16 0.40L91.16 0.40Q88.04 0.40 86.52-0.82Q85-2.04 85-4.36L85-4.36Q85-6.88 86.80-8.38Q88.60-9.88 92.80-10.80L92.80-10.80L96.76-11.68L96.76-12.48Q96.76-13.40 96.30-13.92Q95.84-14.44 94.96-14.44L94.96-14.44Q94-14.44 93.44-13.90Q92.88-13.36 92.84-12L92.84-12L85.24-13.16Q85.56-16.60 88.12-18.50Q90.68-20.40 95.48-20.40L95.48-20.40Q100.80-20.40 103.34-18.36Q105.88-16.32 105.88-12.16L105.88-12.16L105.88-6.56Q105.88-4.92 107.24-4.92L107.24-4.92ZM95.04-4.60Q95.80-4.60 96.28-5.10Q96.76-5.60 96.76-6.56L96.76-6.56L96.76-8.48L95.44-8.08Q94.60-7.84 94.12-7.30Q93.64-6.76 93.64-6L93.64-6Q93.64-5.32 94.04-4.96Q94.44-4.60 95.04-4.60L95.04-4.60Z M122.72-9.16L122.72-14.88L134.96-14.88L134.96 0L128.80 0L128.48-3Q126.44 0.40 121.32 0.40L121.32 0.40Q117.84 0.40 115.06-1.14Q112.28-2.68 110.66-5.72Q109.04-8.76 109.04-13.12L109.04-13.12Q109.04-19.60 112.66-23.20Q116.28-26.80 122.72-26.80L122.72-26.80Q127.64-26.80 130.54-25.12Q133.44-23.44 135.04-19.56L135.04-19.56L126.36-16.44Q125.84-19.80 123.04-19.80L123.04-19.80Q120.72-19.80 119.64-18.22Q118.56-16.64 118.56-13.20L118.56-13.20Q118.56-9.52 119.72-7.94Q120.88-6.36 123.36-6.36L123.36-6.36Q125.12-6.36 126.14-7.06Q127.16-7.76 127.16-9.12L127.16-9.12L127.16-9.16L122.72-9.16Z M142.92-21.28Q140.20-21.28 139.06-22.16Q137.92-23.04 137.92-25.12L137.92-25.12Q137.92-27.20 139.06-28.08Q140.20-28.96 142.92-28.96L142.92-28.96Q145.64-28.96 146.78-28.08Q147.92-27.20 147.92-25.12L147.92-25.12Q147.92-23.04 146.78-22.16Q145.64-21.28 142.92-21.28L142.92-21.28ZM147.52-20L147.52 0L138.32 0L138.32-20L147.52-20Z M180.92-6.16L181.32-0.96Q180.32-0.36 178.62 0.02Q176.92 0.40 175.36 0.40L175.36 0.40Q171.04 0.40 168.92-1.26Q166.80-2.92 166.80-6.72L166.80-6.72L166.80-13.80L161.08-13.80L161.08 0L151.88 0L151.88-13.80L149.20-13.80L149.20-20L151.88-20L151.88-20.80Q151.88-25 154.36-26.92Q156.84-28.84 160.36-28.84L160.36-28.84Q163.36-28.84 165.04-27.60L165.04-27.60L164.80-22.32Q164.40-22.56 163.98-22.68Q163.56-22.80 162.88-22.80L162.88-22.80Q161.84-22.80 161.14-22.22Q160.44-21.64 160.44-20.32L160.44-20.32L160.44-20L166.80-20L166.80-24.24L176-26.80L176-20L181.04-20L181.04-13.80L176-13.80L176-8.16Q176-6.80 176.58-6.22Q177.16-5.64 178.40-5.64L178.40-5.64Q179.88-5.64 180.92-6.16L180.92-6.16Z M204-10.64Q204-9.12 203.80-8.24L203.80-8.24L191.08-8.24Q191.28-6.76 191.92-6.24Q192.56-5.72 193.84-5.72L193.84-5.72Q195.80-5.72 196.24-7.44L196.24-7.44L203.64-5.44Q202.96-2.56 200.30-1.08Q197.64 0.40 193.84 0.40L193.84 0.40Q188.16 0.40 185.22-2.28Q182.28-4.96 182.28-10L182.28-10Q182.28-14.96 185.18-17.68Q188.08-20.40 193.36-20.40L193.36-20.40Q198.52-20.40 201.26-17.76Q204-15.12 204-10.64L204-10.64ZM193.40-14.32Q192.36-14.32 191.80-13.72Q191.24-13.12 191.08-11.64L191.08-11.64L195.40-11.64Q195.28-13 194.82-13.66Q194.36-14.32 193.40-14.32L193.40-14.32Z M220.72-20.40Q222.12-20.40 222.80-19.92L222.80-19.92L222.04-12.40Q221.68-12.68 221.00-12.86Q220.32-13.04 219.52-13.04L219.52-13.04Q217.68-13.04 216.62-12.16Q215.56-11.28 215.56-9.60L215.56-9.60L215.56 0L206.36 0L206.36-20L214.64-20L214.84-15Q216.28-20.40 220.72-20.40L220.72-20.40Z">
</path>
</g>
</svg>